<svg xmlns="http://www.w3.org/2000/svg" width="1680" height="1260" font-family="Arial">
<rect width="1680" height="1260" fill="#0f1626"/>
<text x="40" y="50" font-size="30" font-weight="800" fill="#e6edf7">Brownfield (CSA → TSA) — Full Lifecycle</text>
<text x="40" y="80" font-size="15" fill="#9fb0c8">Optional Rally Epic front door (Step 0) → author &amp; govern (1–13, 2 HITL loops) via the Solution Accelerator Agent → Harness CI/CD builds, deploys &amp; promotes per environment (14–18)</text>
<rect x="40" y="95" width="1600" height="3" fill="#f5a623"/>
<rect x="40" y="118" width="13" height="13" rx="3" fill="#f5a623"/>
<text x="59" y="129" font-size="12.5" fill="#9fb0c8">Input/front door</text>
<rect x="183.2" y="118" width="13" height="13" rx="3" fill="#37c98b"/>
<text x="202.2" y="129" font-size="12.5" fill="#9fb0c8">Deterministic</text>
<rect x="304.8" y="118" width="13" height="13" rx="3" fill="#8b7bf0"/>
<text x="323.8" y="129" font-size="12.5" fill="#9fb0c8">LLM (the Agent)</text>
<rect x="440.8" y="118" width="13" height="13" rx="3" fill="#39b0ff"/>
<text x="459.8" y="129" font-size="12.5" fill="#9fb0c8">Gate</text>
<rect x="497.6" y="118" width="13" height="13" rx="3" fill="#ec4f8f"/>
<text x="516.6" y="129" font-size="12.5" fill="#9fb0c8">HITL (SA review)</text>
<rect x="640.8" y="118" width="13" height="13" rx="3" fill="#39b0ff"/>
<text x="659.8" y="129" font-size="12.5" fill="#9fb0c8">Harness CI/CD</text>
<rect x="762.4" y="118" width="13" height="13" rx="3" fill="#f5a623"/>
<text x="781.4" y="129" font-size="12.5" fill="#9fb0c8">Per-env promote</text>
<rect x="898.4" y="118" width="13" height="13" rx="3" fill="#37c98b"/>
<text x="917.4" y="129" font-size="12.5" fill="#9fb0c8">Operate</text>
<text x="40" y="172" font-size="17" font-weight="800" fill="#f5a623">BUILD &amp; GOVERN — Epic front door + 2 HITL review loops</text>
<text x="880" y="172" font-size="17" font-weight="800" fill="#39b0ff">HARNESS CI/CD — BUILD, DEPLOY &amp; PROMOTE</text>
<rect x="74" y="190" width="766" height="78" rx="9" fill="#1c2740" stroke="#f5a623" stroke-opacity="0.5" stroke-width="1.2"/>
<circle cx="56" cy="229.0" r="15" fill="#f5a623"/>
<text x="56" y="234.0" font-size="15" font-weight="700" fill="#0f1626" text-anchor="middle" font-family="Arial">0</text>
<text x="84" y="215" font-size="16" font-weight="700" fill="#f5a623" font-family="Arial">/accelerator.ingest-epic  (OPTIONAL Epic front door)</text>
<text x="84" y="235" font-size="12.5" fill="#9fb0c8" font-family="Arial">Rally Epic → integration-inventory spec.md via the Solution Accelerator Agent</text>
<text x="84" y="252" font-size="12.5" fill="#9fb0c8" font-family="Arial">create_epic_signal_ledger (extractive, span-grounded) → reviewed, then /speckit.specify</text>
<rect x="74" y="280" width="766" height="64" rx="9" fill="#1c2740" stroke="#37c98b" stroke-opacity="0.5" stroke-width="1.2"/>
<circle cx="56" cy="312.0" r="15" fill="#37c98b"/>
<text x="56" y="317.0" font-size="15" font-weight="700" fill="#0f1626" text-anchor="middle" font-family="Arial">1</text>
<text x="84" y="305" font-size="16" font-weight="700" fill="#e6edf7" font-family="Arial">CSA Agent (upstream)</text>
<text x="84" y="325" font-size="12.5" fill="#9fb0c8" font-family="Arial">Validated CSA diagram — authoritative current state</text>
<rect x="74" y="356" width="766" height="64" rx="9" fill="#1c2740" stroke="#37c98b" stroke-opacity="0.5" stroke-width="1.2"/>
<circle cx="56" cy="388.0" r="15" fill="#37c98b"/>
<text x="56" y="393.0" font-size="15" font-weight="700" fill="#0f1626" text-anchor="middle" font-family="Arial">2</text>
<text x="84" y="381" font-size="16" font-weight="700" fill="#e6edf7" font-family="Arial">/speckit.specify</text>
<text x="84" y="401" font-size="12.5" fill="#9fb0c8" font-family="Arial">csa-extractor reconciles inventory; 8-signal blocks → spec.md</text>
<rect x="74" y="432" width="766" height="64" rx="9" fill="#1c2740" stroke="#ec4f8f" stroke-opacity="0.5" stroke-width="1.2"/>
<circle cx="56" cy="464.0" r="15" fill="#ec4f8f"/>
<text x="56" y="469.0" font-size="15" font-weight="700" fill="#0f1626" text-anchor="middle" font-family="Arial">3</text>
<text x="84" y="457" font-size="16" font-weight="700" fill="#e6edf7" font-family="Arial">/speckit.plan.draft + .review</text>
<text x="84" y="477" font-size="12.5" fill="#9fb0c8" font-family="Arial">R-factor decisions (Plan Gate) → plan.md</text>
<rect x="74" y="508" width="766" height="64" rx="9" fill="#1c2740" stroke="#37c98b" stroke-opacity="0.5" stroke-width="1.2"/>
<circle cx="56" cy="540.0" r="15" fill="#37c98b"/>
<text x="56" y="545.0" font-size="15" font-weight="700" fill="#0f1626" text-anchor="middle" font-family="Arial">4</text>
<text x="84" y="533" font-size="16" font-weight="700" fill="#e6edf7" font-family="Arial">/accelerator.blueprint</text>
<text x="84" y="553" font-size="12.5" fill="#9fb0c8" font-family="Arial">blueprint_start → delegates to the Solution Accelerator Agent; Step 0 = validate_spec</text>
<rect x="74" y="584" width="766" height="64" rx="9" fill="#1c2740" stroke="#37c98b" stroke-opacity="0.5" stroke-width="1.2"/>
<circle cx="56" cy="616.0" r="15" fill="#37c98b"/>
<text x="56" y="621.0" font-size="15" font-weight="700" fill="#0f1626" text-anchor="middle" font-family="Arial">5</text>
<text x="84" y="609" font-size="16" font-weight="700" fill="#e6edf7" font-family="Arial">Tool 1 · map_current_to_target</text>
<text x="84" y="629" font-size="12.5" fill="#9fb0c8" font-family="Arial">Deterministic CSA→TSA substitution (no LLM)</text>
<rect x="74" y="660" width="766" height="64" rx="9" fill="#1c2740" stroke="#8b7bf0" stroke-opacity="0.5" stroke-width="1.2"/>
<circle cx="56" cy="692.0" r="15" fill="#8b7bf0"/>
<text x="56" y="697.0" font-size="15" font-weight="700" fill="#0f1626" text-anchor="middle" font-family="Arial">6</text>
<text x="84" y="685" font-size="16" font-weight="700" fill="#8b7bf0" font-family="Arial">Tool 2 · recommend_architecture  (the Solution Accelerator Agent)</text>
<text x="84" y="705" font-size="12.5" fill="#9fb0c8" font-family="Arial">The ONE LLM stage — the agent&#x27;s FunctionTool composes patterns (RAG)</text>
<rect x="74" y="736" width="766" height="64" rx="9" fill="#1c2740" stroke="#37c98b" stroke-opacity="0.5" stroke-width="1.2"/>
<circle cx="56" cy="768.0" r="15" fill="#37c98b"/>
<text x="56" y="773.0" font-size="15" font-weight="700" fill="#0f1626" text-anchor="middle" font-family="Arial">7</text>
<text x="84" y="761" font-size="16" font-weight="700" fill="#e6edf7" font-family="Arial">Tool 3 · adr_compliance_check</text>
<text x="84" y="781" font-size="12.5" fill="#9fb0c8" font-family="Arial">Deterministic predicate DSL (pass / flag / reject)</text>
<rect x="74" y="812" width="766" height="64" rx="9" fill="#1c2740" stroke="#37c98b" stroke-opacity="0.5" stroke-width="1.2"/>
<circle cx="56" cy="844.0" r="15" fill="#37c98b"/>
<text x="56" y="849.0" font-size="15" font-weight="700" fill="#0f1626" text-anchor="middle" font-family="Arial">8</text>
<text x="84" y="837" font-size="16" font-weight="700" fill="#e6edf7" font-family="Arial">Tool 4 · assemble_blueprint</text>
<text x="84" y="857" font-size="12.5" fill="#9fb0c8" font-family="Arial">design_contract.json v2.0 + 4 diagrams (Eraser MCP)</text>
<rect x="74" y="888" width="766" height="64" rx="9" fill="#1c2740" stroke="#ec4f8f" stroke-opacity="0.5" stroke-width="1.2"/>
<circle cx="56" cy="920.0" r="15" fill="#ec4f8f"/>
<text x="56" y="925.0" font-size="15" font-weight="700" fill="#0f1626" text-anchor="middle" font-family="Arial">9</text>
<text x="84" y="913" font-size="16" font-weight="700" fill="#e6edf7" font-family="Arial">HITL #1 · SA reviews the blueprint</text>
<text x="84" y="933" font-size="12.5" fill="#9fb0c8" font-family="Arial">SA edits app-blueprint.md and/or the .drawio.xml; /accelerator.refresh re-syncs</text>
<rect x="74" y="964" width="766" height="150" rx="10" fill="none" stroke="#ec4f8f" stroke-width="1.5"/>
<text x="92" y="988" font-size="15" font-weight="700" fill="#ec4f8f">HITL #2 · /accelerator.assess gate — loop until clean</text>
<rect x="92" y="1000" width="730" height="32" rx="6" fill="#172036"/>
<text x="104" y="1021" font-size="13.5" font-weight="700" fill="#e6edf7">10 · /accelerator.refresh</text>
<text x="300" y="1021" font-size="12" fill="#9fb0c8">Re-sync .md ↔ .drawio ↔ .json (auto-runs Step 0 of assess if stale)</text>
<rect x="92" y="1037" width="730" height="32" rx="6" fill="#172036"/>
<text x="104" y="1058" font-size="13.5" font-weight="700" fill="#e6edf7">11 · /accelerator.assess</text>
<text x="300" y="1058" font-size="12" fill="#9fb0c8">Governance Guardian (Eraser MCP) → Critical / High / Medium / Low</text>
<rect x="92" y="1074" width="730" height="32" rx="6" fill="#172036"/>
<text x="104" y="1095" font-size="13.5" font-weight="700" fill="#e6edf7">12 · verify_generation_gate</text>
<text x="300" y="1095" font-size="12" fill="#9fb0c8">Critical or High present → STOP (resolve → refresh → re-assess)</text>
<rect x="74" y="1126" width="766" height="64" rx="9" fill="#1c2740" stroke="#37c98b" stroke-opacity="0.5" stroke-width="1.2"/>
<circle cx="56" cy="1158.0" r="15" fill="#37c98b"/>
<text x="56" y="1163.0" font-size="15" font-weight="700" fill="#0f1626" text-anchor="middle" font-family="Arial">13</text>
<text x="84" y="1151" font-size="16" font-weight="700" fill="#e6edf7" font-family="Arial">/accelerator.generate</text>
<text x="84" y="1171" font-size="12.5" fill="#9fb0c8" font-family="Arial">UNLOCKED when no Critical/High → migration code + Terraform + Harness pipeline + eval</text>
<rect x="904" y="190" width="736" height="64" rx="9" fill="#1c2740" stroke="#39b0ff" stroke-opacity="0.5" stroke-width="1.2"/>
<circle cx="886" cy="222.0" r="15" fill="#39b0ff"/>
<text x="886" y="227.0" font-size="15" font-weight="700" fill="#0f1626" text-anchor="middle" font-family="Arial">14</text>
<text x="914" y="215" font-size="16" font-weight="700" fill="#e6edf7" font-family="Arial">Merge Pull Request</text>
<text x="914" y="235" font-size="12.5" fill="#9fb0c8" font-family="Arial">Triggers the Harness pipeline (platform never deploys)</text>
<rect x="904" y="266" width="736" height="64" rx="9" fill="#1c2740" stroke="#ec4f8f" stroke-opacity="0.5" stroke-width="1.2"/>
<circle cx="886" cy="298.0" r="15" fill="#ec4f8f"/>
<text x="886" y="303.0" font-size="15" font-weight="700" fill="#0f1626" text-anchor="middle" font-family="Arial">15</text>
<text x="914" y="291" font-size="16" font-weight="700" fill="#e6edf7" font-family="Arial">Harness · PRS + EvalOps gates</text>
<text x="914" y="311" font-size="12.5" fill="#9fb0c8" font-family="Arial">Production Readiness Scan → Phase-1 eval gate (golden dataset)</text>
<rect x="904" y="342" width="736" height="64" rx="9" fill="#1c2740" stroke="#39b0ff" stroke-opacity="0.5" stroke-width="1.2"/>
<circle cx="886" cy="374.0" r="15" fill="#39b0ff"/>
<text x="886" y="379.0" font-size="15" font-weight="700" fill="#0f1626" text-anchor="middle" font-family="Arial">16</text>
<text x="914" y="367" font-size="16" font-weight="700" fill="#e6edf7" font-family="Arial">Harness · Sign &amp; Attest</text>
<text x="914" y="387" font-size="12.5" fill="#9fb0c8" font-family="Arial">cosign + Binary Authorization (NEVER-SWAPPABLE)</text>
<rect x="904" y="418" width="736" height="106" rx="9" fill="#1c2740" stroke="#39b0ff" stroke-opacity="0.5" stroke-width="1.2"/>
<circle cx="886" cy="471.0" r="15" fill="#39b0ff"/>
<text x="886" y="476.0" font-size="15" font-weight="700" fill="#0f1626" text-anchor="middle" font-family="Arial">17</text>
<text x="914" y="443" font-size="16" font-weight="700" fill="#e6edf7" font-family="Arial">Harness · Build, deploy &amp; promote per env</text>
<text x="914" y="463" font-size="12.5" fill="#9fb0c8" font-family="Arial">terraform apply (infra) · docker build (per agent) · deploy to Agent Engine</text>
<text x="914" y="480" font-size="12.5" fill="#9fb0c8" font-family="Arial">publish proxy API to Apigee · register the agent as an API Product in API Hub</text>
<text x="914" y="497" font-size="12.5" fill="#9fb0c8" font-family="Arial">NON-PROD → PRE-PROD (canary 10%) → PROD (progressive rollout · auto-rollback)</text>
<rect x="904" y="536" width="736" height="64" rx="9" fill="#1c2740" stroke="#37c98b" stroke-opacity="0.5" stroke-width="1.2"/>
<circle cx="886" cy="568.0" r="15" fill="#37c98b"/>
<text x="886" y="573.0" font-size="15" font-weight="700" fill="#0f1626" text-anchor="middle" font-family="Arial">18</text>
<text x="914" y="561" font-size="16" font-weight="700" fill="#e6edf7" font-family="Arial">Comes alive in prod</text>
<text x="914" y="581" font-size="12.5" fill="#9fb0c8" font-family="Arial">Dynatrace APM · Phoenix/Arize traces · AWS Config · golden-dataset eval</text>
<text x="40" y="1228" font-size="12.5" fill="#9fb0c8">Two HITL points: (1) SA edits the .md/.drawio then /accelerator.refresh; (2) /accelerator.assess loops until NO Critical/High remain. The optional Step-0 Epic front door and Tool 2 both run on the ONE Solution Accelerator Agent.</text>
<text x="40" y="1248" font-size="12.5" fill="#9fb0c8">/accelerator.generate is blocked until the gate is clean. Harness owns infra, per-agent build, Agent Engine deploy, and per-env API Hub registration.</text>
</svg>