<svg xmlns="http://www.w3.org/2000/svg" viewBox="0 0 1500 540" font-family="Segoe UI, Arial, sans-serif">
  <style>
    .title { font-size: 26; fill: #2C6E9B; font-weight: 600; }
    .zone-title { font-size: 18; font-weight: bold; }
    .node-text { font-size: 15; }
    .edge-label { font-size: 13; fill: #333; }
    .edge-blue { stroke: #1C8ACB; stroke-width: 2.5; fill: none; marker-end: url(#ar-blue); }
    .edge-orange { stroke: #B5651D; stroke-width: 2.5; fill: none; marker-end: url(#ar-orange); }
  </style>
  <defs>
    <marker id="ar-blue" markerWidth="9" markerHeight="7" refX="8" refY="3.5" orient="auto"><polygon points="0 0, 9 3.5, 0 7" fill="#1C8ACB"/></marker>
    <marker id="ar-orange" markerWidth="9" markerHeight="7" refX="8" refY="3.5" orient="auto"><polygon points="0 0, 9 3.5, 0 7" fill="#B5651D"/></marker>
  </defs>

  <text x="750" y="70" text-anchor="middle" class="title">Reference Case — Target State Architecture (TSA)</text>

  <!-- Internal User -->
  <rect x="60" y="250" width="150" height="55" rx="12" fill="#FCF3CF" stroke="#D4AC0D" stroke-width="2"/>
  <text x="135" y="283" text-anchor="middle" class="node-text">Internal User</text>

  <!-- AWS Account zone -->
  <rect x="410" y="120" width="1050" height="310" rx="14" fill="#AED6F1" fill-opacity="0.4" stroke="#2980B9" stroke-width="2.5"/>
  <text x="1280" y="152" text-anchor="middle" class="zone-title" fill="#1A5276">AWS Account (target)</text>

  <!-- CloudFront -->
  <rect x="430" y="250" width="140" height="55" rx="12" fill="#EBF5FB" stroke="#2980B9" stroke-width="2"/>
  <text x="500" y="283" text-anchor="middle" class="node-text">CloudFront</text>

  <!-- ALB internal -->
  <rect x="700" y="190" width="170" height="55" rx="12" fill="#EBF5FB" stroke="#2980B9" stroke-width="2"/>
  <text x="785" y="223" text-anchor="middle" class="node-text">ALB (internal)</text>

  <!-- S3 Bucket -->
  <rect x="700" y="330" width="170" height="55" rx="12" fill="#EBF5FB" stroke="#2980B9" stroke-width="2"/>
  <text x="785" y="363" text-anchor="middle" class="node-text">S3 Bucket (SPA)</text>

  <!-- BFF on ECS Fargate (dark) -->
  <rect x="1000" y="245" width="200" height="65" rx="12" fill="#1A5276" stroke="#154360" stroke-width="2"/>
  <text x="1100" y="272" text-anchor="middle" class="node-text" fill="white">BFF on ECS Fargate</text>
  <text x="1100" y="293" text-anchor="middle" class="node-text" fill="white">Spring Boot</text>

  <!-- SQS Queue -->
  <rect x="1290" y="250" width="180" height="55" rx="12" fill="#EBF5FB" stroke="#2980B9" stroke-width="2"/>
  <text x="1380" y="283" text-anchor="middle" class="node-text">SQS Queue (existing)</text>

  <!-- Downstream App (outside right, in zone) -->
  <rect x="1280" y="250" width="175" height="55" rx="12" fill="#EBF5FB" stroke="#2980B9" stroke-width="2" transform="translate(220,0)"/>
  <text x="1587" y="283" text-anchor="middle" class="node-text">Downstream App</text>

  <!-- GCP zone -->
  <rect x="1150" y="450" width="340" height="80" rx="14" fill="#F5CBA7" fill-opacity="0.45" stroke="#B5651D" stroke-width="2.5"/>
  <text x="1320" y="478" text-anchor="middle" class="zone-title" fill="#7E3F0E">GCP (cross-cloud)</text>
  <rect x="1170" y="490" width="160" height="30" rx="10" fill="#FDEBD0" stroke="#B5651D" stroke-width="2" transform="translate(0,-5)"/>
  <text x="1250" y="500" text-anchor="middle" class="node-text">Apigee Gateway</text>
  <text x="1250" y="517" text-anchor="middle" class="node-text">mTLS + OAuth</text>
  <rect x="1370" y="485" width="100" height="40" rx="10" fill="#FDEBD0" stroke="#B5651D" stroke-width="2"/>
  <text x="1420" y="510" text-anchor="middle" class="node-text">Domain API</text>

  <!-- Edges -->
  <line x1="210" y1="277" x2="428" y2="277" class="edge-blue"/>
  <text x="285" y="268" class="edge-label">HTTPS</text>

  <path d="M 570 265 L 698 220" class="edge-blue"/>
  <text x="610" y="235" class="edge-label">/api/*</text>

  <path d="M 570 290 L 698 355" class="edge-blue"/>
  <text x="615" y="335" class="edge-label">static</text>

  <line x1="870" y1="218" x2="998" y2="265" class="edge-blue"/>

  <line x1="1200" y1="277" x2="1288" y2="277" class="edge-blue"/>
  <text x="1210" y="268" class="edge-label">AWS SDK / IAM</text>

  <!-- SQS to Downstream -->
  <line x1="1470" y1="277" x2="1498" y2="277" class="edge-blue"/>

  <!-- BFF to Apigee (cross-cloud) -->
  <path d="M 1100 310 L 1240 488" class="edge-orange"/>
  <text x="1130" y="370" class="edge-label">PrivateLink → PSC</text>
  <text x="1130" y="387" class="edge-label">mTLS</text>

  <!-- Apigee to Domain API -->
  <line x1="1330" y1="500" x2="1368" y2="505" class="edge-orange"/>

  <!-- Per-component dispositions (driven by the Epic's Modernization Scope table) -->
  <text x="750" y="98" text-anchor="middle" font-size="14" fill="#555">Each CSA component carries an Epic-declared disposition: Refactor (re-architect AWS-native) or Rehost (lift-and-shift).</text>
  <rect x="1000" y="315" width="200" height="22" rx="6" fill="#E8F8F0" stroke="#1E8449" stroke-width="1.5"/>
  <text x="1100" y="330" text-anchor="middle" font-size="12.5" font-weight="bold" fill="#1E8449">CSA-COMP-001 · Refactor</text>
  <rect x="1290" y="312" width="180" height="22" rx="6" fill="#FDF2E2" stroke="#B9770E" stroke-width="1.5"/>
  <text x="1380" y="327" text-anchor="middle" font-size="12.5" font-weight="bold" fill="#B9770E">CSA-COMP-003 · Rehost</text>
  <rect x="1150" y="455" width="180" height="20" rx="6" fill="#E8F8F0" stroke="#1E8449" stroke-width="1.5"/>
  <text x="1240" y="469" text-anchor="middle" font-size="12" font-weight="bold" fill="#1E8449">CSA-COMP-002 · Refactor</text>
</svg>
