<svg xmlns="http://www.w3.org/2000/svg" viewBox="0 0 1500 850" font-family="Segoe UI, Arial, sans-serif">
  <style>
    .title { font-size: 20; font-weight: bold; }
    .subtitle { font-size: 10; fill: #555; }
    .step-circle { fill: #FF8C00; }
    .step-num { fill: white; font-size: 13; font-weight: bold; }
    .bold { font-weight: bold; }
    .s12 { font-size: 12; }
    .s11 { font-size: 11; }
    .s10 { font-size: 10; }
    .s9 { font-size: 9; }
    .s8 { font-size: 8; fill: #555; }
    .gray { fill: #666; }
    .white { fill: white; }
    .arrow { stroke: #555; stroke-width: 1.5; fill: none; marker-end: url(#ah); }
    .arrow-d { stroke: #999; stroke-width: 1.2; fill: none; stroke-dasharray: 5,3; marker-end: url(#ah); }
  </style>
  <defs>
    <marker id="ah" markerWidth="7" markerHeight="5" refX="7" refY="2.5" orient="auto">
      <polygon points="0 0, 7 2.5, 0 5" fill="#555"/>
    </marker>
  </defs>

  <!-- ===== TITLE ===== -->
  <text x="530" y="28" class="title">SDLC Accelerators — End-to-End Component Architecture (Greenfield)</text>
  <text x="310" y="44" class="subtitle">Spec → Solution Accelerator (RAG + API Hub A2A) → app-blueprint.md/.json → Governance Guardian → skill-guided code → production</text>

  <!-- ===== STEP 1: Developer ===== -->
  <circle cx="48" cy="62" r="12" class="step-circle"/>
  <text x="48" y="66" text-anchor="middle" class="step-num">1</text>

  <rect x="22" y="78" width="150" height="105" fill="#F3E8FF" stroke="#7C3AED" stroke-width="2" rx="6"/>
  <text x="97" y="96" text-anchor="middle" class="s11 bold">Developer / SA</text>
  <text x="30" y="112" class="s9">/specify → spec.md</text>
  <text x="30" y="125" class="s9">/plan → plan.md</text>
  <text x="30" y="140" class="s8">10-section + biz rules + IF/THEN</text>
  <text x="30" y="153" class="s8">VS Code + Copilot (Claude Opus 4.6)</text>
  <text x="30" y="166" class="s8">Employer internal tool</text>

  <!-- Optional Epic front door (Greenfield) -->
  <text x="101" y="192" text-anchor="middle" class="s8 bold" fill="#F57F17">OPTIONAL FRONT DOOR (GREENFIELD)</text>
  <rect x="22" y="196" width="158" height="44" fill="#FFF8E1" stroke="#F9A825" stroke-width="1.5" rx="6"/>
  <text x="101" y="211" text-anchor="middle" class="s9 bold">Rally MCP server</text>
  <text x="101" y="223" text-anchor="middle" class="s8">.vscode/mcp.json · Entra ID SSO</text>
  <text x="101" y="234" text-anchor="middle" class="s8">fetches Epic — creds stay in IDE</text>
  <line x1="101" y1="240" x2="101" y2="248" class="arrow"/>
  <rect x="22" y="248" width="158" height="66" fill="#FCE4EC" stroke="#C62828" stroke-width="1.5" rx="6"/>
  <text x="101" y="262" text-anchor="middle" class="s9 bold" fill="#F57F17">ingest_epic (optional)</text>
  <text x="101" y="274" text-anchor="middle" class="s8">coding agent brokers → spec.md</text>
  <text x="101" y="285" text-anchor="middle" class="s8" fill="#C62828">Phase A: Sol Accel Agent → Ledger</text>
  <text x="101" y="296" text-anchor="middle" class="s8" fill="#2E7D32">Phase B mapping + fill-ratio conf.</text>
  <text x="101" y="307" text-anchor="middle" class="s8">+ Rally ObjectVersion provenance</text>
  <line x1="180" y1="274" x2="202" y2="258" class="arrow-d"/>

  <line x1="172" y1="125" x2="198" y2="125" class="arrow"/>
  <text x="174" y="118" class="s8">/accelerator</text>
  <text x="174" y="127" class="s8">.blueprint</text>

  <!-- ===== STEP 2: Solution Accelerator MCP Server ===== -->
  <circle cx="310" cy="62" r="12" class="step-circle"/>
  <text x="310" y="66" text-anchor="middle" class="step-num">2</text>

  <rect x="200" y="78" width="560" height="180" fill="#E0F7FA" stroke="#0097A7" stroke-width="2" rx="6"/>
  <text x="480" y="96" text-anchor="middle" class="s12 bold">Solution Accelerator MCP Server (Cloud Run)</text>
  <text x="480" y="110" text-anchor="middle" class="s8">OAuth 2.1 + Entra ID · Async MCP Tasks · AlloyDB Task Store</text>

  <!-- MCP Tools -->
  <rect x="212" y="118" width="88" height="22" fill="#B2EBF2" stroke="#0097A7" stroke-width="1" rx="3"/>
  <text x="256" y="133" text-anchor="middle" class="s9 bold">blueprint_start</text>

  <rect x="308" y="118" width="88" height="22" fill="#B2EBF2" stroke="#0097A7" stroke-width="1" rx="3"/>
  <text x="352" y="133" text-anchor="middle" class="s9 bold">blueprint_status</text>

  <rect x="404" y="118" width="88" height="22" fill="#B2EBF2" stroke="#0097A7" stroke-width="1" rx="3"/>
  <text x="448" y="133" text-anchor="middle" class="s9 bold">blueprint_result</text>

  <rect x="500" y="118" width="100" height="22" fill="#B2EBF2" stroke="#0097A7" stroke-width="1" rx="3"/>
  <text x="550" y="133" text-anchor="middle" class="s9 bold">assess_start/result</text>

  <rect x="608" y="118" width="88" height="22" fill="#FFF3E0" stroke="#E65100" stroke-width="1" rx="3"/>
  <text x="652" y="133" text-anchor="middle" class="s9 bold" fill="#E65100">recordTechDebt</text>

  <!-- RAG Pipeline -->
  <rect x="212" y="148" width="535" height="20" fill="#B2EBF2" stroke="#0097A7" stroke-width="1" rx="3"/>
  <text x="480" y="162" text-anchor="middle" class="s9 bold">RAG Pipeline (Solution Accelerator Agent + validate_composition)</text>

  <!-- validate_spec -->
  <rect x="212" y="174" width="70" height="16" fill="#FFF3E0" stroke="#E65100" stroke-width="1" rx="3"/>
  <text x="247" y="185" text-anchor="middle" class="s8 bold" fill="#E65100">validate_spec</text>

  <rect x="290" y="174" width="74" height="16" fill="#FFF8E1" stroke="#F9A825" stroke-width="1" rx="3"/>
  <text x="327" y="185" text-anchor="middle" class="s8 bold" fill="#F57F17">ingest_epic</text>

  <!-- Sources -->
  <rect x="212" y="196" width="115" height="30" fill="white" stroke="#BDBDBD" stroke-width="1" rx="3"/>
  <text x="269" y="209" text-anchor="middle" class="s9 bold">Vertex AI Search</text>
  <text x="269" y="221" text-anchor="middle" class="s8">Pattern · Tool Catalog</text>

  <rect x="335" y="196" width="95" height="30" fill="white" stroke="#BDBDBD" stroke-width="1" rx="3"/>
  <text x="382" y="209" text-anchor="middle" class="s9 bold">Apigee API Hub</text>
  <text x="382" y="221" text-anchor="middle" class="s8">A2A Discovery</text>

  <rect x="438" y="196" width="100" height="30" fill="white" stroke="#BDBDBD" stroke-width="1" rx="3"/>
  <text x="488" y="209" text-anchor="middle" class="s9 bold">Draw.io Headless</text>
  <text x="488" y="221" text-anchor="middle" class="s8">.drawio → .png</text>

  <rect x="546" y="196" width="115" height="30" fill="white" stroke="#BDBDBD" stroke-width="1" rx="3"/>
  <text x="603" y="209" text-anchor="middle" class="s9 bold">ADR Constraint Store</text>
  <text x="603" y="221" text-anchor="middle" class="s8">AlloyDB + Rule UI</text>

  <text x="370" y="246" class="s8">assemble_blueprint generates .md + .json + diagrams</text>

  <!-- ===== Blueprint Package ===== -->
  <rect x="200" y="255" width="380" height="26" fill="#E8F5E9" stroke="#2E7D32" stroke-width="1.5" rx="4"/>
  <text x="390" y="272" text-anchor="middle" class="s10 bold">Blueprint Package</text>
  <text x="390" y="286" text-anchor="middle" class="s8">app-blueprint.md (§1-§9) + .json + .drawio + .png</text>
  <line x1="480" y1="238" x2="390" y2="253" class="arrow"/>

  <!-- HITL box -->
  <rect x="610" y="255" width="150" height="24" fill="#FFF9C4" stroke="#F9A825" stroke-width="1" rx="4"/>
  <text x="685" y="271" text-anchor="middle" class="s9 bold" fill="#F57F17">HITL: Edit .md + .drawio</text>
  <line x1="580" y1="268" x2="608" y2="268" class="arrow"/>

  <!-- /accelerator.refresh -->
  <rect x="610" y="288" width="150" height="24" fill="#B2EBF2" stroke="#0097A7" stroke-width="1" rx="4"/>
  <text x="685" y="304" text-anchor="middle" class="s9 bold">/accelerator.refresh</text>
  <text x="685" y="318" text-anchor="middle" class="s8">validate Part I · sync Part II</text>
  <text x="685" y="328" text-anchor="middle" class="s8">regen .json + .png</text>
  <text x="685" y="340" text-anchor="middle" class="s8" fill="#E65100" font-style="italic">auto-triggered if stale</text>

  <!-- ===== STEP 2a: Governance Guardian ===== -->
  <circle cx="210" cy="310" r="11" fill="#E65100"/>
  <text x="210" y="314" text-anchor="middle" class="step-num" font-size="10">2a</text>

  <rect x="228" y="300" width="355" height="28" fill="#FFF3E0" stroke="#E65100" stroke-width="2" rx="4"/>
  <text x="405" y="314" text-anchor="middle" class="s10 bold" fill="#E65100">Governance Guardian (EA Assessment)</text>
  <text x="405" y="340" text-anchor="middle" class="s8">Reads Part I (§1-§7) only · assess_start → assess_status → assess_result</text>
  <text x="405" y="350" text-anchor="middle" class="s8">Scorecard · recordTechDebt gate</text>
  <line x1="390" y1="281" x2="390" y2="298" class="arrow"/>

  <!-- ===== STEP 3: Code Gen ===== -->
  <circle cx="248" cy="375" r="12" fill="#2E7D32"/>
  <text x="248" y="379" text-anchor="middle" class="step-num">3</text>

  <rect x="200" y="390" width="420" height="58" fill="#E8F5E9" stroke="#2E7D32" stroke-width="2" rx="6"/>
  <text x="410" y="406" text-anchor="middle" class="s11 bold">Skill-Guided Code Generation (/accelerator.generate)</text>

  <rect x="212" y="412" width="105" height="18" fill="#C8E6C9" stroke="#2E7D32" stroke-width="1" rx="3"/>
  <text x="264" y="425" text-anchor="middle" class="s8 bold">app-blueprint.json</text>

  <rect x="325" y="412" width="80" height="18" fill="#C8E6C9" stroke="#2E7D32" stroke-width="1" rx="3"/>
  <text x="365" y="425" text-anchor="middle" class="s8 bold">Domain Skills</text>

  <rect x="413" y="412" width="80" height="18" fill="#C8E6C9" stroke="#2E7D32" stroke-width="1" rx="3"/>
  <text x="453" y="425" text-anchor="middle" class="s8 bold">Overlay Skills</text>

  <text x="310" y="444" class="s8">ADK agents + MCP/A2A + FunctionTools + Model Armor + OTel</text>
  <text x="310" y="454" class="s8">Apigee proxy + Workload Identity + API Hub entry</text>
  <line x1="390" y1="358" x2="390" y2="388" class="arrow"/>

  <!-- GitHub MCP Server -->
  <rect x="640" y="394" width="130" height="34" fill="#F5F5F5" stroke="#9E9E9E" stroke-width="1" rx="4"/>
  <text x="705" y="410" text-anchor="middle" class="s9 bold">GitHub MCP Server</text>
  <text x="705" y="422" text-anchor="middle" class="s8">TF modules from S8</text>
  <line x1="620" y1="415" x2="638" y2="412" class="arrow"/>

  <!-- Callout -->
  <rect x="22" y="408" width="158" height="32" fill="#FFF9C4" stroke="#F9A825" stroke-width="1" rx="4"/>
  <text x="101" y="421" text-anchor="middle" class="s8 bold" fill="#F57F17">Coding agent NEVER deploys.</text>
  <text x="101" y="433" text-anchor="middle" class="s8" fill="#F57F17">Reads .json (NOT .md).</text>

  <!-- ===== STEP 4: GitHub ===== -->
  <circle cx="255" cy="478" r="11" fill="#1565C0"/>
  <text x="255" y="482" text-anchor="middle" class="step-num" font-size="10">4</text>

  <rect x="275" y="470" width="125" height="24" fill="#E3F2FD" stroke="#1565C0" stroke-width="1.5" rx="4"/>
  <text x="337" y="486" text-anchor="middle" class="s9 bold">GitHub Repo + PR</text>
  <text x="337" y="500" text-anchor="middle" class="s8">triggers Jenkins + Harness</text>
  <line x1="337" y1="454" x2="337" y2="468" class="arrow"/>

  <!-- ===== STEP 5: Jenkins ===== -->
  <circle cx="440" cy="478" r="11" fill="#C62828"/>
  <text x="440" y="482" text-anchor="middle" class="step-num" font-size="10">5</text>

  <rect x="458" y="470" width="250" height="24" fill="#FFEBEE" stroke="#C62828" stroke-width="1.5" rx="4"/>
  <text x="583" y="486" text-anchor="middle" class="s9 bold">Jenkins (IaC) + Harness (Deploy) + EvalOps</text>
  <line x1="400" y1="482" x2="456" y2="482" class="arrow"/>

  <!-- Pipeline stages -->
  <rect x="462" y="498" width="46" height="14" fill="#E3F2FD" stroke="#1565C0" stroke-width="0.5" rx="2"/>
  <text x="485" y="509" text-anchor="middle" class="s8">TF apply</text>
  <rect x="512" y="498" width="42" height="14" fill="#E3F2FD" stroke="#1565C0" stroke-width="0.5" rx="2"/>
  <text x="533" y="509" text-anchor="middle" class="s8">Deploy</text>
  <rect x="558" y="498" width="52" height="14" fill="#FFEBEE" stroke="#C62828" stroke-width="0.5" rx="2"/>
  <text x="584" y="509" text-anchor="middle" class="s8">EvalOps 3-ph</text>
  <rect x="614" y="498" width="50" height="14" fill="#E3F2FD" stroke="#1565C0" stroke-width="0.5" rx="2"/>
  <text x="639" y="509" text-anchor="middle" class="s8">API Hub reg</text>
  <rect x="668" y="498" width="52" height="14" fill="#C8E6C9" stroke="#2E7D32" stroke-width="0.5" rx="2"/>
  <text x="694" y="509" text-anchor="middle" class="s8">Canary rollout</text>

  <text x="530" y="524" text-anchor="middle" class="s8">Non-Prod → Pre-Prod (canary) → Prod · AutoRollback if error rate > 1%</text>

  <!-- ===== STEP 6: Production ===== -->
  <circle cx="755" cy="478" r="12" fill="#2E7D32"/>
  <text x="755" y="482" text-anchor="middle" class="step-num">6</text>

  <rect x="772" y="462" width="145" height="42" fill="#E8F5E9" stroke="#2E7D32" stroke-width="2" rx="6"/>
  <text x="844" y="479" text-anchor="middle" class="s10 bold">Production</text>
  <text x="844" y="492" text-anchor="middle" class="s8">Cloud Run + Agent Engine</text>
  <text x="844" y="502" text-anchor="middle" class="s8">Apigee + Workload Identity</text>
  <line x1="720" y1="482" x2="770" y2="480" class="arrow"/>

  <!-- ===== RIGHT PANEL ===== -->
  <rect x="960" y="70" width="300" height="190" fill="#FAFAFA" stroke="#E0E0E0" stroke-width="1.5" rx="6"/>
  <text x="1110" y="92" text-anchor="middle" class="s12 bold">What SDLC Accelerators Generates</text>

  <rect x="975" y="102" width="10" height="10" fill="#FF8C00" rx="2"/>
  <text x="992" y="112" class="s9 bold">Application Code (80-95%)</text>
  <text x="992" y="124" class="s8">ADK agents · MCP/A2A · FunctionTools</text>
  <text x="992" y="134" class="s8">first-draft biz logic from spec §7</text>

  <rect x="975" y="144" width="10" height="10" fill="#1565C0" rx="2"/>
  <text x="992" y="154" class="s9 bold">Deployment-Ready Multi-Region IaC</text>
  <text x="992" y="166" class="s8">Company TF modules · tagged · lifecycle-aware</text>
  <text x="992" y="176" class="s8">+ Apigee proxy + Workload Identity + API Hub entry</text>

  <rect x="975" y="186" width="10" height="10" fill="#C62828" rx="2"/>
  <text x="992" y="196" class="s9 bold">CI/CD + EvalOps</text>
  <text x="992" y="208" class="s8">Jenkins (IaC) + Harness (deploy + canary)</text>
  <text x="992" y="218" class="s8">3-phase EvalOps · Golden dataset · Pre-commit eval hooks</text>

  <rect x="975" y="228" width="10" height="10" fill="#7C3AED" rx="2"/>
  <text x="992" y="238" class="s9 bold">Security + Observability</text>
  <text x="992" y="250" class="s8">Model Armor (segmented) · VPC-SC · CMEK · Secret Mgr</text>
  <text x="992" y="260" class="s8">Dynatrace dashboard + OTel + Splunk logging</text>

  <!-- ===== GOVERNANCE FLOW BAR ===== -->
  <rect x="22" y="545" width="900" height="28" fill="#263238" rx="4"/>
  <text x="472" y="564" text-anchor="middle" fill="white" font-size="11" font-weight="bold">Governance Flow: Governance Guardian (EA Assessment) → Assess-Fix-Reassess → recordTechDebt Gate → Generate</text>

  <!-- Gov steps -->
  <rect x="22" y="582" width="195" height="36" fill="#FFF3E0" stroke="#E65100" stroke-width="1.5" rx="4"/>
  <text x="119" y="597" text-anchor="middle" class="s9 bold">Step 2a: /accelerator.assess</text>
  <text x="119" y="610" text-anchor="middle" class="s8">Reads .md (NOT .json) · 7 categories</text>

  <text x="232" y="600" text-anchor="middle" class="s11 bold">→</text>

  <rect x="250" y="582" width="195" height="36" fill="#FFF3E0" stroke="#E65100" stroke-width="1" rx="4"/>
  <text x="347" y="597" text-anchor="middle" class="s9 bold">Fix Showstoppers</text>
  <text x="347" y="610" text-anchor="middle" class="s8">Edit .md → re-run assess → regen .json</text>

  <text x="460" y="600" text-anchor="middle" class="s11 bold">→</text>

  <rect x="478" y="582" width="195" height="36" fill="#E8F5E9" stroke="#2E7D32" stroke-width="1.5" rx="4"/>
  <text x="575" y="597" text-anchor="middle" class="s9 bold">Step 3: /accelerator.generate</text>
  <text x="575" y="610" text-anchor="middle" class="s8">recordTechDebt gate · Auto-regen .json</text>

  <text x="688" y="600" text-anchor="middle" class="s11 bold">→</text>

  <rect x="705" y="582" width="150" height="36" fill="#F5F5F5" stroke="#9E9E9E" stroke-width="1.5" rx="4"/>
  <text x="780" y="597" text-anchor="middle" class="s9 bold">Production</text>
  <text x="780" y="610" text-anchor="middle" class="s8">No attestation chain · Standard PR review</text>

  <!-- ===== ARCHETYPE BAR ===== -->
  <text x="472" y="650" text-anchor="middle" class="s11 bold">Archetype-Agnostic: Same Solution Accelerator + Same Skills + Same Governance → Any Application Type</text>

  <rect x="50" y="662" width="160" height="26" fill="#7C3AED" rx="12"/>
  <text x="130" y="680" text-anchor="middle" fill="white" font-size="10" font-weight="bold">Agentic AI Agents</text>

  <rect x="230" y="662" width="160" height="26" fill="#0097A7" rx="12"/>
  <text x="310" y="680" text-anchor="middle" fill="white" font-size="10" font-weight="bold">Microservices</text>

  <rect x="410" y="662" width="160" height="26" fill="#E65100" rx="12"/>
  <text x="490" y="680" text-anchor="middle" fill="white" font-size="10" font-weight="bold">Event-Driven Pipelines</text>

  <rect x="590" y="662" width="160" height="26" fill="#2E7D32" rx="12"/>
  <text x="670" y="680" text-anchor="middle" fill="white" font-size="10" font-weight="bold">API-First Services</text>

  <text x="870" y="680" class="s8" font-style="italic">Swap preset → different archetype. Same platform, same governance, same workflow.</text>

  <!-- Footer -->
  <text x="472" y="720" text-anchor="middle" class="s8">SDLC Accelerators — Employer Internal Tool — Not for External Distribution</text>
</svg>
